<svg xmlns="http://www.w3.org/2000/svg" version="1.1" xmlns:xlink="http://www.w3.org/1999/xlink" width="200" height="200"><svg xmlns="http://www.w3.org/2000/svg" version="1.1" xmlns:xlink="http://www.w3.org/1999/xlink" viewBox="0 0 200 200"><rect width="200" height="200" fill="url('#gradient')"></rect><defs><linearGradient id="SvgjsLinearGradient1004" gradientTransform="rotate(45 0.5 0.5)"><stop offset="0%" stop-color="#a8b0c0"></stop><stop offset="100%" stop-color="#10d4da"></stop></linearGradient></defs><g><g fill="#fce765" transform="matrix(1.7260851243152129,0,0,1.7260851243152129,18.91949415242074,109.44894845265655)" stroke="#50cfd6" stroke-width="0.2"><path d="M8.41-3.78L8.41-3.78Q8.41-4.53 7.88-4.95Q7.34-5.37 6.01-5.82Q4.67-6.27 3.82-6.69L3.82-6.69Q1.05-8.05 1.05-10.42L1.05-10.42Q1.05-11.60 1.74-12.50Q2.43-13.41 3.69-13.91Q4.95-14.41 6.52-14.41L6.52-14.41Q8.06-14.41 9.27-13.87Q10.49-13.32 11.16-12.31Q11.84-11.30 11.84-10L11.84-10L8.42-10Q8.42-10.87 7.89-11.35Q7.35-11.83 6.45-11.83L6.45-11.83Q5.53-11.83 5.00-11.42Q4.46-11.02 4.46-10.39L4.46-10.39Q4.46-9.84 5.05-9.40Q5.63-8.96 7.11-8.48Q8.58-8.01 9.53-7.46L9.53-7.46Q11.84-6.13 11.84-3.80L11.84-3.80Q11.84-1.93 10.43-0.87Q9.02 0.20 6.57 0.20L6.57 0.20Q4.84 0.20 3.44-0.42Q2.04-1.04 1.33-2.12Q0.63-3.20 0.63-4.61L0.63-4.61L4.06-4.61Q4.06-3.47 4.65-2.92Q5.24-2.38 6.57-2.38L6.57-2.38Q7.42-2.38 7.92-2.75Q8.41-3.12 8.41-3.78ZM19.99 0L17.69-3.94L16.76-3.01L16.76 0L13.47 0L13.47-15.01L16.76-15.01L16.76-7.04L17.09-7.48L19.57-10.57L23.52-10.57L19.81-6.22L23.76 0L19.99 0ZM27.85-10.57L27.85 0L24.55 0L24.55-10.57L27.85-10.57ZM24.36-13.29L24.36-13.29Q24.36-13.99 24.86-14.44Q25.37-14.89 26.18-14.89Q26.99-14.89 27.50-14.44Q28.01-13.99 28.01-13.29Q28.01-12.59 27.50-12.14Q26.99-11.69 26.18-11.69Q25.37-11.69 24.86-12.14Q24.36-12.59 24.36-13.29ZM33.35-15L33.35 0L30.05 0L30.05-15L33.35-15ZM38.85-15L38.85 0L35.55 0L35.55-15L38.85-15ZM53.34-3.78L53.34-3.78Q53.34-4.53 52.81-4.95Q52.28-5.37 50.94-5.82Q49.60-6.27 48.75-6.69L48.75-6.69Q45.99-8.05 45.99-10.42L45.99-10.42Q45.99-11.60 46.67-12.50Q47.36-13.41 48.62-13.91Q49.88-14.41 51.46-14.41L51.46-14.41Q52.99-14.41 54.20-13.87Q55.42-13.32 56.09-12.31Q56.77-11.30 56.77-10L56.77-10L53.35-10Q53.35-10.87 52.82-11.35Q52.29-11.83 51.38-11.83L51.38-11.83Q50.46-11.83 49.93-11.42Q49.39-11.02 49.39-10.39L49.39-10.39Q49.39-9.84 49.98-9.40Q50.57-8.96 52.04-8.48Q53.52-8.01 54.46-7.46L54.46-7.46Q56.77-6.13 56.77-3.80L56.77-3.80Q56.77-1.93 55.36-0.87Q53.96 0.20 51.50 0.20L51.50 0.20Q49.78 0.20 48.37-0.42Q46.97-1.04 46.26-2.12Q45.56-3.20 45.56-4.61L45.56-4.61L48.99-4.61Q48.99-3.47 49.58-2.92Q50.18-2.38 51.50-2.38L51.50-2.38Q52.35-2.38 52.85-2.75Q53.34-3.12 53.34-3.78ZM65.84-10.57L67.50-4.34L68.56-10.57L71.72-10.57L69.23 0L66.45 0L64.70-6.27L62.94 0L60.16 0L57.67-10.57L60.82-10.57L61.87-4.19L63.54-10.57L65.84-10.57ZM82.14 0L78.85 0Q78.67-0.32 78.54-0.95L78.54-0.95Q77.63 0.20 76.00 0.20L76.00 0.20Q74.50 0.20 73.46-0.71Q72.41-1.61 72.41-2.98L72.41-2.98Q72.41-4.70 73.68-5.58Q74.95-6.46 77.37-6.46L77.37-6.46L78.39-6.46L78.39-7.01Q78.39-8.47 77.13-8.47L77.13-8.47Q75.96-8.47 75.96-7.31L75.96-7.31L72.67-7.31Q72.67-8.85 73.97-9.80Q75.27-10.76 77.29-10.76Q79.32-10.76 80.49-9.78Q81.66-8.79 81.69-7.07L81.69-7.07L81.69-2.39Q81.71-0.94 82.14-0.17L82.14-0.17L82.14 0ZM76.79-2.15L76.79-2.15Q77.40-2.15 77.81-2.41Q78.21-2.68 78.39-3.01L78.39-3.01L78.39-4.70L77.43-4.70Q75.71-4.70 75.71-3.15L75.71-3.15Q75.71-2.71 76.02-2.43Q76.32-2.15 76.79-2.15ZM93.32-5.36L93.32-5.21Q93.32-2.74 92.21-1.27Q91.10 0.20 89.22 0.20L89.22 0.20Q87.76 0.20 86.83-0.87L86.83-0.87L86.83 4.06L83.54 4.06L83.54-10.57L86.61-10.57L86.71-9.59Q87.66-10.76 89.20-10.76L89.20-10.76Q91.15-10.76 92.24-9.32Q93.32-7.88 93.32-5.36L93.32-5.36ZM90.03-5.06L90.03-5.41Q90.03-8.22 88.39-8.22L88.39-8.22Q87.22-8.22 86.83-7.38L86.83-7.38L86.83-3.22Q87.26-2.34 88.41-2.34L88.41-2.34Q89.98-2.34 90.03-5.06L90.03-5.06Z"></path></g></g></svg><style>@media (prefers-color-scheme: light) { :root { filter: none; } }
@media (prefers-color-scheme: dark) { :root { filter: none; } }
</style></svg>